<svg width="193" height="38" viewBox="0 0 193 38" fill="none" xmlns="http://www.w3.org/2000/svg">
<path d="M184.672 27.4523C187.424 27.4523 190.212 26.529 192.249 24.9308C192.285 24.8953 192.285 24.8598 192.249 24.8598L190.248 22.4448C190.212 22.4093 190.176 22.4093 190.176 22.4448C188.497 23.6168 186.674 24.2205 184.744 24.2205C181.849 24.2205 180.098 22.871 179.669 20.3495L179.633 20.0654H192.678V19.1776C192.678 14.4187 188.818 10.5121 184.101 10.4766C184.065 10.4766 184.029 10.4766 183.993 10.4766C181.42 10.4766 179.133 11.329 177.524 12.9271C175.987 14.4542 175.13 16.6205 175.13 18.9645C175.165 24.114 178.882 27.4523 184.672 27.4523ZM179.99 16.6916C180.598 14.8093 182.028 13.7794 183.993 13.7794C185.959 13.7794 187.353 14.8093 187.996 16.6916C188.068 16.8691 188.032 17.0467 187.925 17.1888C187.818 17.3308 187.639 17.4374 187.46 17.4374H180.562C180.384 17.4374 180.205 17.3308 180.098 17.1888C179.955 17.0467 179.919 16.8691 179.99 16.6916Z" fill="white"/>
<path d="M158.367 19.0355C158.367 23.8654 162.299 27.5234 167.553 27.5234C170.126 27.5234 172.485 26.6355 174.2 25.0019V24.8953L171.77 22.2673C170.841 23.4392 169.375 24.1495 167.839 24.1495C167.052 24.1495 166.302 23.972 165.587 23.6168C165.551 23.6168 165.515 23.5813 165.48 23.5458L165.444 23.5103L165.372 23.4748C164.372 22.9776 163.55 22.0897 163.121 21.0243C163.014 20.7757 162.942 20.5271 162.871 20.243C162.835 20.1009 162.799 19.9944 162.799 19.8878L162.763 19.7103C162.763 19.6392 162.728 19.5327 162.728 19.4617C162.728 19.3551 162.728 19.2486 162.728 19.142C162.728 19.071 162.728 19.0355 162.728 19.0355C162.728 18.929 162.728 18.8224 162.728 18.7159V18.6448C162.728 18.6093 162.728 18.6093 162.728 18.5738C162.799 18.0056 162.942 17.4019 163.192 16.8691C163.228 16.7981 163.264 16.6916 163.299 16.6206C163.764 15.6972 164.479 15.0224 165.337 14.5607C166.087 14.1346 166.945 13.9215 167.839 13.9215C169.375 13.9215 170.805 14.5963 171.806 15.8037L174.236 13.1047C172.521 11.471 170.126 10.5477 167.517 10.5477C162.299 10.5477 158.367 14.2056 158.367 19.0355Z" fill="white"/>
<path d="M155.937 26.7421V18.4673C155.794 14.7028 154.757 11.2224 148.431 11.2224C147.109 11.2224 145.929 11.4 144.929 11.7907L144.571 11.9327V11.2935C144.571 11.2579 144.536 11.2579 144.536 11.2579H140.997C140.961 11.2579 140.961 11.2935 140.961 11.2935V26.7421C140.961 26.7776 140.997 26.8131 141.033 26.8131H145.107C145.143 26.8131 145.179 26.7776 145.179 26.7421V18.0411C145.179 17.5439 145.25 17.0822 145.358 16.6561C145.822 15.4486 147.073 14.5963 148.467 14.5607C149.825 14.5607 151.112 15.4131 151.576 16.6206C151.719 17.0467 151.755 17.5084 151.755 18.0056V26.7065C151.755 26.7421 151.791 26.7776 151.827 26.7776H155.901C155.901 26.8131 155.937 26.7776 155.937 26.7421Z" fill="white"/>
<path d="M122.448 11.2935V19.6037C122.591 23.3682 123.627 26.8486 129.953 26.8486C136.387 26.8486 137.316 22.5869 137.459 19.4262V11.2935C137.459 11.2579 137.423 11.2224 137.387 11.2224H133.313C133.277 11.2224 133.241 11.2579 133.241 11.2935V19.9944C133.241 20.4916 133.17 20.9533 133.063 21.3794C132.598 22.5869 131.347 23.4392 129.953 23.4748C128.595 23.4748 127.309 22.6224 126.844 21.415C126.701 20.9888 126.665 20.5271 126.665 20.0299V11.2935C126.665 11.2579 126.629 11.2224 126.594 11.2224H122.519C122.484 11.2224 122.448 11.2579 122.448 11.2935Z" fill="white"/>
<path d="M110.618 10.4766C105.399 10.4766 101.432 14.1346 101.432 18.9645C101.432 23.7944 105.364 27.4523 110.618 27.4523C115.871 27.4523 119.839 23.7944 119.839 18.9645C119.839 14.0991 115.871 10.4766 110.618 10.4766ZM110.618 23.9364C107.901 23.9364 105.828 21.8056 105.828 18.9645C105.828 16.1589 107.937 13.9925 110.618 13.9925C113.334 13.9925 115.443 16.1944 115.443 18.9645C115.443 21.7346 113.298 23.9364 110.618 23.9364Z" fill="white"/>
<path d="M91.8537 27.1682C96.1783 27.1682 99.4665 23.6168 99.4665 18.929C99.4665 14.2766 96.1426 10.6187 91.8537 10.6187C89.5663 10.6187 87.4933 11.542 86.028 13.2467L85.5633 13.7439V3.37382C85.5633 3.33831 85.5276 3.3028 85.4918 3.3028H81.4174C81.3817 3.3028 81.3459 3.33831 81.3459 3.37382V26.742C81.3459 26.7776 81.3817 26.8131 81.4174 26.8131H85.2417C85.2774 26.8131 85.3131 26.7776 85.3131 26.742V23.8299L85.7778 24.3626C87.2431 26.1738 89.3876 27.1682 91.8537 27.1682ZM90.9602 14.1701C93.6765 14.1701 95.678 16.1589 95.678 18.8934C95.678 21.5925 93.6407 23.6168 90.9602 23.6168C88.2796 23.6168 86.1709 21.557 86.1709 18.929C86.1709 16.2299 88.2439 14.1701 90.9602 14.1701Z" fill="white"/>
<path d="M78.0578 26.8131C78.0935 26.8131 78.1293 26.7776 78.1293 26.7421V18.4673C77.9863 14.7028 76.9498 11.2224 70.6237 11.2224C69.3013 11.2224 68.1219 11.4 67.1211 11.7907L66.7637 11.9327V11.2935C66.7637 11.2579 66.728 11.2579 66.6922 11.2579H63.1539C63.1182 11.2579 63.1182 11.2935 63.1182 11.2935V26.7421C63.1182 26.7776 63.1539 26.8131 63.1896 26.8131H67.2641C67.2998 26.8131 67.3356 26.7776 67.3356 26.7421V18.0411C67.3356 17.5439 67.4071 17.0822 67.5143 16.6561C67.9789 15.4486 69.2298 14.5963 70.6237 14.5607C71.9819 14.5607 73.2685 15.4131 73.7332 16.6206C73.8761 17.0467 73.9119 17.5084 73.9119 18.0056V26.7065C73.9119 26.7421 73.9476 26.7776 73.9833 26.7776H78.0578V26.8131Z" fill="white"/>
<path d="M44.8904 11.2935V19.6037C45.0333 23.3682 46.0698 26.8486 52.3959 26.8486C58.8293 26.8486 59.7585 22.5869 59.9015 19.4262V11.2935C59.9015 11.2579 59.8658 11.2224 59.83 11.2224H55.7556C55.7198 11.2224 55.6841 11.2579 55.6841 11.2935V19.9944C55.6841 20.4916 55.6126 20.9533 55.5054 21.3794C55.0408 22.5869 53.7898 23.4392 52.3959 23.4748C51.0378 23.4748 49.7511 22.6224 49.2865 21.415C49.1435 20.9888 49.1078 20.5271 49.1078 20.0299V11.2935C49.1078 11.2579 49.072 11.2224 49.0363 11.2224H44.9619C44.8904 11.2224 44.8904 11.2579 44.8904 11.2935Z" fill="white"/>
<path d="M19.2285 0.106537C8.72074 0.106537 0.214447 8.55887 0.214447 19C0.214447 29.4411 8.72074 37.8935 19.2285 37.8935C29.7363 37.8935 38.2426 29.4411 38.2426 19C38.2426 8.55887 29.7363 0.106537 19.2285 0.106537ZM18.5494 26.4224L17.1556 30.5065C17.1198 30.6486 17.0483 30.7551 16.9769 30.8617C16.7982 31.1458 16.5837 31.3589 16.2978 31.5009C16.0476 31.643 15.7617 31.714 15.4757 31.714C15.297 31.714 15.0826 31.6785 14.9039 31.6075C14.1176 31.3234 13.6172 30.5421 13.7244 29.7607C9.79297 27.772 7.11241 23.6878 7.11241 19C7.11241 12.3234 12.545 6.88971 19.3 6.88971C20.0863 6.88971 20.8369 6.96074 21.5874 7.1028C22.0163 6.42803 22.8741 6.10841 23.6604 6.357C24.0893 6.49906 24.4109 6.78317 24.6254 7.13831C24.8041 7.45794 24.9113 7.81308 24.8756 8.20373C24.8756 8.34579 24.8398 8.48785 24.8041 8.59439L23.4102 12.6785L18.5494 26.4224ZM20.0863 31.0748L21.7661 26.0318C24.6611 25.0019 26.7341 22.2673 26.7341 19C26.7341 17.4729 26.2694 16.0168 25.4474 14.8449L27.1272 9.80186C29.7363 12.0037 31.4161 15.3065 31.4161 19C31.3804 25.3925 26.4124 30.6131 20.0863 31.0748Z" fill="white"/>
<path d="M11.723 19C11.723 21.628 13.1168 23.9364 15.1898 25.286L19.9076 11.5776C19.6931 11.5421 19.443 11.5421 19.2285 11.5421C15.0826 11.5421 11.723 14.8804 11.723 19Z" fill="white"/>
</svg>
